<svg xmlns="http://www.w3.org/2000/svg" xmlns:xlink="http://www.w3.org/1999/xlink" width="300" zoomAndPan="magnify" viewBox="400 100 200 400" height="180" preserveAspectRatio="xMidYMid meet" version="1.0"><defs><g/><clipPath id="0f6524a8b8"><path d="M 422.597656 125.019531 L 595.3125 125.019531 L 595.3125 297.734375 L 422.597656 297.734375 Z M 422.597656 125.019531 " clip-rule="nonzero"/></clipPath><clipPath id="7f55dd593c"><path d="M 508.953125 125.019531 C 461.257812 125.019531 422.597656 163.683594 422.597656 211.378906 C 422.597656 259.070312 461.257812 297.734375 508.953125 297.734375 C 556.648438 297.734375 595.3125 259.070312 595.3125 211.378906 C 595.3125 163.683594 556.648438 125.019531 508.953125 125.019531 Z M 508.953125 125.019531 " clip-rule="nonzero"/></clipPath><clipPath id="dab754f0c9"><path d="M 428.847656 131.273438 L 589.058594 131.273438 L 589.058594 291.484375 L 428.847656 291.484375 Z M 428.847656 131.273438 " clip-rule="nonzero"/></clipPath><clipPath id="3a4d5d4b67"><path d="M 508.953125 131.273438 C 464.710938 131.273438 428.847656 167.136719 428.847656 211.378906 C 428.847656 255.617188 464.710938 291.484375 508.953125 291.484375 C 553.195312 291.484375 589.058594 255.617188 589.058594 211.378906 C 589.058594 167.136719 553.195312 131.273438 508.953125 131.273438 Z M 508.953125 131.273438 " clip-rule="nonzero"/></clipPath><clipPath id="14bba5d5c0"><path d="M 422.597656 260.925781 L 496.21875 260.925781 L 496.21875 334.546875 L 422.597656 334.546875 Z M 422.597656 260.925781 " clip-rule="nonzero"/></clipPath><clipPath id="ea54400cd3"><path d="M 459.40625 260.925781 C 439.078125 260.925781 422.597656 277.40625 422.597656 297.734375 C 422.597656 318.066406 439.078125 334.546875 459.40625 334.546875 C 479.738281 334.546875 496.21875 318.066406 496.21875 297.734375 C 496.21875 277.40625 479.738281 260.925781 459.40625 260.925781 Z M 459.40625 260.925781 " clip-rule="nonzero"/></clipPath><clipPath id="8aa93f966a"><path d="M 495 211 L 624 211 L 624 333 L 495 333 Z M 495 211 " clip-rule="nonzero"/></clipPath><clipPath id="8c3cd51e2a"><path d="M 503.382812 204.046875 L 631.03125 219.640625 L 616.355469 339.785156 L 488.703125 324.191406 Z M 503.382812 204.046875 " clip-rule="nonzero"/></clipPath><clipPath id="0a3ad018c4"><path d="M 567.117188 211.835938 C 531.917969 207.535156 500.09375 230.945312 496.042969 264.121094 C 491.992188 297.296875 517.242188 327.675781 552.441406 331.976562 C 587.640625 336.277344 619.460938 312.867188 623.515625 279.691406 C 627.566406 246.515625 602.316406 216.132812 567.117188 211.835938 Z M 567.117188 211.835938 " clip-rule="nonzero"/></clipPath><clipPath id="3e7ac43cd0"><path d="M 563 236 L 581 236 L 581 281 L 563 281 Z M 563 236 " clip-rule="nonzero"/></clipPath><clipPath id="b619250da5"><path d="M 410.308594 305.007812 L 476.996094 168.222656 L 615.804688 235.898438 L 549.117188 372.683594 Z M 410.308594 305.007812 " clip-rule="nonzero"/></clipPath><clipPath id="4a9198424d"><path d="M 410.308594 305.007812 L 476.996094 168.222656 L 615.804688 235.898438 L 549.117188 372.683594 Z M 410.308594 305.007812 " clip-rule="nonzero"/></clipPath><clipPath id="33ba865163"><path d="M 424 227 L 596 227 L 596 322 L 424 322 Z M 424 227 " clip-rule="nonzero"/></clipPath><clipPath id="cc4a65837e"><path d="M 410.308594 305.007812 L 476.996094 168.222656 L 615.804688 235.898438 L 549.117188 372.683594 Z M 410.308594 305.007812 " clip-rule="nonzero"/></clipPath><clipPath id="c30f80febf"><path d="M 410.308594 305.007812 L 476.996094 168.222656 L 615.804688 235.898438 L 549.117188 372.683594 Z M 410.308594 305.007812 " clip-rule="nonzero"/></clipPath><clipPath id="7eed9c46d3"><path d="M 468.390625 148.304688 L 549.515625 148.304688 L 549.515625 229.425781 L 468.390625 229.425781 Z M 468.390625 148.304688 " clip-rule="nonzero"/></clipPath><clipPath id="c822ab5788"><path d="M 518.167969 148.304688 L 499.742188 148.304688 C 496.429688 148.304688 493.742188 150.988281 493.742188 154.300781 L 493.742188 167.660156 C 493.742188 170.972656 491.058594 173.65625 487.746094 173.65625 L 474.390625 173.65625 C 471.078125 173.65625 468.390625 176.339844 468.390625 179.652344 L 468.390625 198.078125 C 468.390625 201.390625 471.078125 204.078125 474.390625 204.078125 L 487.746094 204.078125 C 491.058594 204.078125 493.742188 206.761719 493.742188 210.074219 L 493.742188 223.429688 C 493.742188 226.742188 496.429688 229.425781 499.742188 229.425781 L 518.167969 229.425781 C 521.480469 229.425781 524.164062 226.742188 524.164062 223.429688 L 524.164062 210.074219 C 524.164062 206.761719 526.847656 204.078125 530.160156 204.078125 L 543.519531 204.078125 C 546.828125 204.078125 549.515625 201.390625 549.515625 198.078125 L 549.515625 179.652344 C 549.515625 176.339844 546.828125 173.65625 543.519531 173.65625 L 530.160156 173.65625 C 526.847656 173.65625 524.164062 170.972656 524.164062 167.660156 L 524.164062 154.300781 C 524.164062 150.988281 521.480469 148.304688 518.167969 148.304688 Z M 518.167969 148.304688 " clip-rule="nonzero"/></clipPath></defs><g clip-path="url(#0f6524a8b8)"><g clip-path="url(#7f55dd593c)"><path fill="#05d671" d="M 422.597656 125.019531 L 595.3125 125.019531 L 595.3125 297.734375 L 422.597656 297.734375 Z M 422.597656 125.019531 " fill-opacity="1" fill-rule="nonzero"/></g></g><g clip-path="url(#dab754f0c9)"><g clip-path="url(#3a4d5d4b67)"><path fill="#000000" d="M 428.847656 131.273438 L 589.058594 131.273438 L 589.058594 291.484375 L 428.847656 291.484375 Z M 428.847656 131.273438 " fill-opacity="1" fill-rule="nonzero"/></g></g><g clip-path="url(#14bba5d5c0)"><g clip-path="url(#ea54400cd3)"><path fill="#000000" d="M 422.597656 260.925781 L 496.21875 260.925781 L 496.21875 334.546875 L 422.597656 334.546875 Z M 422.597656 260.925781 " fill-opacity="1" fill-rule="nonzero"/></g></g><g clip-path="url(#8aa93f966a)"><g clip-path="url(#8c3cd51e2a)"><g clip-path="url(#0a3ad018c4)"><path fill="#000000" d="M 503.382812 204.046875 L 631.03125 219.640625 L 616.355469 339.785156 L 488.707031 324.191406 Z M 503.382812 204.046875 " fill-opacity="1" fill-rule="nonzero"/></g></g></g><g clip-path="url(#3e7ac43cd0)"><g clip-path="url(#b619250da5)"><g clip-path="url(#4a9198424d)"><path fill="#05d671" d="M 573.789062 237.59375 C 567.105469 246.234375 571.601562 258.027344 571.601562 258.027344 C 565.855469 257.675781 565.496094 264.761719 565.1875 271.71875 C 565 275.957031 565.695312 278.4375 563.769531 280.859375 C 564.691406 280.308594 565.628906 279.742188 566.585938 279.148438 C 568.324219 278.074219 570.070312 276.882812 571.820312 275.675781 C 573.589844 274.476562 575.253906 273.125 576.828125 271.742188 C 577.574219 271.027344 578.335938 270.289062 578.804688 269.6875 C 579.097656 269.457031 579.355469 268.824219 579.625 268.382812 L 579.667969 268.308594 L 579.691406 268.214844 L 579.789062 267.890625 L 579.984375 267.246094 C 580.390625 265.328125 580.570312 263.210938 580.683594 261.199219 C 580.875 257.132812 580.867188 253.269531 580.878906 249.964844 C 580.882812 243.320312 580.886719 238.890625 580.886719 238.890625 C 580.886719 238.890625 576.492188 234.101562 573.789062 237.59375 " fill-opacity="1" fill-rule="nonzero"/></g></g></g><g clip-path="url(#33ba865163)"><g clip-path="url(#cc4a65837e)"><g clip-path="url(#c30f80febf)"><path fill="#05d671" d="M 588.476562 227.753906 C 581.027344 228.449219 580.886719 238.890625 580.886719 238.890625 C 580.886719 238.890625 581.957031 243.21875 582.78125 249.84375 C 583.199219 253.15625 583.570312 257.039062 583.605469 261.265625 C 583.574219 263.390625 583.601562 265.570312 583.125 267.933594 L 582.871094 268.855469 L 582.738281 269.320312 L 582.703125 269.441406 L 582.6875 269.492188 L 582.675781 269.527344 C 582.746094 269.378906 582.574219 269.75 582.589844 269.71875 L 582.492188 269.902344 C 582.191406 270.398438 582.070312 270.832031 581.59375 271.40625 C 580.753906 272.585938 579.90625 273.363281 579.074219 274.207031 C 577.308594 275.71875 575.5 277.113281 573.636719 278.328125 C 571.808594 279.59375 569.898438 280.644531 568.066406 281.683594 C 564.378906 283.703125 560.800781 285.304688 557.660156 286.492188 C 556.101562 287.113281 554.625 287.574219 553.324219 287.976562 C 552.015625 288.367188 550.863281 288.660156 549.902344 288.855469 C 548.953125 289.089844 548.179688 289.15625 547.664062 289.230469 C 547.152344 289.300781 546.878906 289.339844 546.875 289.339844 C 517.171875 298.316406 499.414062 279.21875 499.414062 279.21875 C 499.414062 279.21875 524.421875 286.144531 541.261719 277.054688 C 555.101562 269.585938 547.960938 254.132812 543.675781 257.523438 C 531.59375 267.089844 503.175781 258.445312 486.03125 258.78125 C 432.347656 259.839844 424.195312 311.773438 424.195312 311.773438 C 470.121094 294.914062 504.257812 324.761719 531.183594 321.507812 C 556.609375 318.441406 558.039062 312.941406 570.996094 306.078125 C 580.894531 300.84375 595.359375 277.601562 595.359375 277.601562 C 596.46875 270.851562 596.886719 226.972656 588.476562 227.753906 " fill-opacity="1" fill-rule="nonzero"/></g></g></g><g clip-path="url(#7eed9c46d3)"><g clip-path="url(#c822ab5788)"><path fill="#ff5757" d="M 468.390625 148.304688 L 549.515625 148.304688 L 549.515625 229.425781 L 468.390625 229.425781 Z M 468.390625 148.304688 " fill-opacity="1" fill-rule="nonzero"/></g></g><g fill="#ffffff" fill-opacity="1"><g transform="translate(429.279906, 389.385403)"><g><path d="M 20.71875 0.59375 C 17.1875 0.59375 13.988281 -0.171875 11.125 -1.703125 C 8.269531 -3.242188 6.023438 -5.378906 4.390625 -8.109375 C 2.753906 -10.835938 1.9375 -13.921875 1.9375 -17.359375 C 1.9375 -20.796875 2.753906 -23.875 4.390625 -26.59375 C 6.023438 -29.320312 8.269531 -31.453125 11.125 -32.984375 C 13.988281 -34.523438 17.203125 -35.296875 20.765625 -35.296875 C 23.773438 -35.296875 26.492188 -34.765625 28.921875 -33.703125 C 31.359375 -32.648438 33.398438 -31.132812 35.046875 -29.15625 L 29.890625 -24.390625 C 27.546875 -27.097656 24.640625 -28.453125 21.171875 -28.453125 C 19.023438 -28.453125 17.109375 -27.976562 15.421875 -27.03125 C 13.734375 -26.09375 12.414062 -24.78125 11.46875 -23.09375 C 10.53125 -21.414062 10.0625 -19.503906 10.0625 -17.359375 C 10.0625 -15.203125 10.53125 -13.28125 11.46875 -11.59375 C 12.414062 -9.914062 13.734375 -8.601562 15.421875 -7.65625 C 17.109375 -6.71875 19.023438 -6.25 21.171875 -6.25 C 24.640625 -6.25 27.546875 -7.617188 29.890625 -10.359375 L 35.046875 -5.609375 C 33.398438 -3.585938 31.351562 -2.046875 28.90625 -0.984375 C 26.457031 0.0664062 23.726562 0.59375 20.71875 0.59375 Z M 20.71875 0.59375 "/></g></g></g><g fill="#ffffff" fill-opacity="1"><g transform="translate(472.752938, 389.385403)"><g><path d="M 26.96875 -7.4375 L 10.859375 -7.4375 L 7.78125 0 L -0.453125 0 L 15.015625 -34.703125 L 22.953125 -34.703125 L 38.46875 0 L 30.046875 0 Z M 24.4375 -13.53125 L 18.9375 -26.828125 L 13.4375 -13.53125 Z M 24.4375 -13.53125 "/></g></g></g><g fill="#ffffff" fill-opacity="1"><g transform="translate(517.86176, 389.385403)"><g><path d="M 26.234375 0 L 19.53125 -9.671875 L 12.140625 -9.671875 L 12.140625 0 L 4.109375 0 L 4.109375 -34.703125 L 19.140625 -34.703125 C 22.210938 -34.703125 24.878906 -34.1875 27.140625 -33.15625 C 29.410156 -32.132812 31.15625 -30.679688 32.375 -28.796875 C 33.59375 -26.921875 34.203125 -24.691406 34.203125 -22.109375 C 34.203125 -19.535156 33.582031 -17.3125 32.34375 -15.4375 C 31.101562 -13.570312 29.34375 -12.144531 27.0625 -11.15625 L 34.859375 0 Z M 26.078125 -22.109375 C 26.078125 -24.054688 25.445312 -25.550781 24.1875 -26.59375 C 22.9375 -27.632812 21.101562 -28.15625 18.6875 -28.15625 L 12.140625 -28.15625 L 12.140625 -16.0625 L 18.6875 -16.0625 C 21.101562 -16.0625 22.9375 -16.585938 24.1875 -17.640625 C 25.445312 -18.703125 26.078125 -20.191406 26.078125 -22.109375 Z M 26.078125 -22.109375 "/></g></g></g><g fill="#ffffff" fill-opacity="1"><g transform="translate(561.433936, 389.385403)"><g><path d="M 30.984375 -6.4375 L 30.984375 0 L 4.109375 0 L 4.109375 -34.703125 L 30.34375 -34.703125 L 30.34375 -28.265625 L 12.09375 -28.265625 L 12.09375 -20.71875 L 28.203125 -20.71875 L 28.203125 -14.484375 L 12.09375 -14.484375 L 12.09375 -6.4375 Z M 30.984375 -6.4375 "/></g></g></g><g fill="#ffffff" fill-opacity="1"><g transform="translate(468.567358, 442.099155)"><g><path d="M 8.484375 -19.75 L 8.484375 -13.34375 L 19.71875 -13.34375 L 19.71875 -8.84375 L 8.484375 -8.84375 L 8.484375 0 L 2.875 0 L 2.875 -24.265625 L 21.203125 -24.265625 L 21.203125 -19.75 Z M 8.484375 -19.75 "/></g></g></g><g fill="#ffffff" fill-opacity="1"><g transform="translate(495.70255, 442.099155)"><g><path d="M 14.625 0.421875 C 12.101562 0.421875 9.832031 -0.117188 7.8125 -1.203125 C 5.789062 -2.296875 4.207031 -3.796875 3.0625 -5.703125 C 1.925781 -7.609375 1.359375 -9.75 1.359375 -12.125 C 1.359375 -14.507812 1.925781 -16.65625 3.0625 -18.5625 C 4.207031 -20.46875 5.789062 -21.960938 7.8125 -23.046875 C 9.832031 -24.128906 12.101562 -24.671875 14.625 -24.671875 C 17.144531 -24.671875 19.410156 -24.128906 21.421875 -23.046875 C 23.429688 -21.960938 25.007812 -20.46875 26.15625 -18.5625 C 27.3125 -16.65625 27.890625 -14.507812 27.890625 -12.125 C 27.890625 -9.75 27.3125 -7.609375 26.15625 -5.703125 C 25.007812 -3.796875 23.429688 -2.296875 21.421875 -1.203125 C 19.410156 -0.117188 17.144531 0.421875 14.625 0.421875 Z M 14.625 -4.359375 C 16.0625 -4.359375 17.351562 -4.6875 18.5 -5.34375 C 19.65625 -6.007812 20.5625 -6.929688 21.21875 -8.109375 C 21.882812 -9.285156 22.21875 -10.625 22.21875 -12.125 C 22.21875 -13.625 21.882812 -14.960938 21.21875 -16.140625 C 20.5625 -17.328125 19.65625 -18.25 18.5 -18.90625 C 17.351562 -19.5625 16.0625 -19.890625 14.625 -19.890625 C 13.1875 -19.890625 11.890625 -19.5625 10.734375 -18.90625 C 9.585938 -18.25 8.679688 -17.328125 8.015625 -16.140625 C 7.359375 -14.960938 7.03125 -13.625 7.03125 -12.125 C 7.03125 -10.625 7.359375 -9.285156 8.015625 -8.109375 C 8.679688 -6.929688 9.585938 -6.007812 10.734375 -5.34375 C 11.890625 -4.6875 13.1875 -4.359375 14.625 -4.359375 Z M 14.625 -4.359375 "/></g></g></g><g fill="#ffffff" fill-opacity="1"><g transform="translate(529.941975, 442.099155)"><g><path d="M 18.328125 0 L 13.65625 -6.765625 L 8.484375 -6.765625 L 8.484375 0 L 2.875 0 L 2.875 -24.265625 L 13.375 -24.265625 C 15.519531 -24.265625 17.382812 -23.90625 18.96875 -23.1875 C 20.550781 -22.46875 21.769531 -21.445312 22.625 -20.125 C 23.476562 -18.8125 23.90625 -17.253906 23.90625 -15.453125 C 23.90625 -13.648438 23.472656 -12.097656 22.609375 -10.796875 C 21.742188 -9.492188 20.515625 -8.492188 18.921875 -7.796875 L 24.359375 0 Z M 18.234375 -15.453125 C 18.234375 -16.816406 17.789062 -17.863281 16.90625 -18.59375 C 16.03125 -19.320312 14.75 -19.6875 13.0625 -19.6875 L 8.484375 -19.6875 L 8.484375 -11.234375 L 13.0625 -11.234375 C 14.75 -11.234375 16.03125 -11.601562 16.90625 -12.34375 C 17.789062 -13.082031 18.234375 -14.117188 18.234375 -15.453125 Z M 18.234375 -15.453125 "/></g></g></g></svg>