<svg xmlns="http://www.w3.org/2000/svg" xmlns:xlink="http://www.w3.org/1999/xlink" width="300" zoomAndPan="magnify" viewBox="70 70 200 200" height="100" preserveAspectRatio="xMidYMid meet" version="1.0"><defs><g/><clipPath id="46015ffe73"><path d="M 68.953125 128.347656 L 151.46875 128.347656 L 151.46875 210.863281 L 68.953125 210.863281 Z M 68.953125 128.347656 " clip-rule="nonzero"/></clipPath><clipPath id="7fc441878c"><path d="M 110.210938 128.347656 C 87.421875 128.347656 68.953125 146.816406 68.953125 169.605469 C 68.953125 192.390625 87.421875 210.863281 110.210938 210.863281 C 132.996094 210.863281 151.46875 192.390625 151.46875 169.605469 C 151.46875 146.816406 132.996094 128.347656 110.210938 128.347656 Z M 110.210938 128.347656 " clip-rule="nonzero"/></clipPath><clipPath id="5df934a3ce"><path d="M 71.9375 131.332031 L 148.480469 131.332031 L 148.480469 207.875 L 71.9375 207.875 Z M 71.9375 131.332031 " clip-rule="nonzero"/></clipPath><clipPath id="a5f3e86cb7"><path d="M 110.210938 131.332031 C 89.074219 131.332031 71.9375 148.46875 71.9375 169.605469 C 71.9375 190.738281 89.074219 207.875 110.210938 207.875 C 131.347656 207.875 148.480469 190.738281 148.480469 169.605469 C 148.480469 148.46875 131.347656 131.332031 110.210938 131.332031 Z M 110.210938 131.332031 " clip-rule="nonzero"/></clipPath><clipPath id="b6e5d8cc49"><path d="M 68.953125 193.273438 L 104.125 193.273438 L 104.125 228.449219 L 68.953125 228.449219 Z M 68.953125 193.273438 " clip-rule="nonzero"/></clipPath><clipPath id="ac5ae92416"><path d="M 86.539062 193.273438 C 76.824219 193.273438 68.953125 201.148438 68.953125 210.863281 C 68.953125 220.574219 76.824219 228.449219 86.539062 228.449219 C 96.25 228.449219 104.125 220.574219 104.125 210.863281 C 104.125 201.148438 96.25 193.273438 86.539062 193.273438 Z M 86.539062 193.273438 " clip-rule="nonzero"/></clipPath><clipPath id="3de356a283"><path d="M 103 169 L 166 169 L 166 228 L 103 228 Z M 103 169 " clip-rule="nonzero"/></clipPath><clipPath id="f0610e2164"><path d="M 107.546875 166.101562 L 168.535156 173.550781 L 161.523438 230.949219 L 100.535156 223.5 Z M 107.546875 166.101562 " clip-rule="nonzero"/></clipPath><clipPath id="abec91e25e"><path d="M 137.996094 169.820312 C 121.179688 167.765625 105.976562 178.953125 104.042969 194.800781 C 102.105469 210.652344 114.167969 225.167969 130.984375 227.21875 C 147.804688 229.273438 163.003906 218.089844 164.941406 202.242188 C 166.878906 186.390625 154.816406 171.875 137.996094 169.820312 Z M 137.996094 169.820312 " clip-rule="nonzero"/></clipPath><clipPath id="1fbc8cb602"><path d="M 136 181 L 145 181 L 145 203 L 136 203 Z M 136 181 " clip-rule="nonzero"/></clipPath><clipPath id="57671b1467"><path d="M 63.082031 214.335938 L 94.964844 148.945312 L 161.03125 181.152344 L 129.148438 246.546875 Z M 63.082031 214.335938 " clip-rule="nonzero"/></clipPath><clipPath id="4c101786ed"><path d="M 63.082031 214.335938 L 94.964844 148.945312 L 161.03125 181.152344 L 129.148438 246.546875 Z M 63.082031 214.335938 " clip-rule="nonzero"/></clipPath><clipPath id="d03342e827"><path d="M 69 177 L 152 177 L 152 223 L 69 223 Z M 69 177 " clip-rule="nonzero"/></clipPath><clipPath id="f7d73e020a"><path d="M 63.082031 214.335938 L 94.964844 148.945312 L 161.03125 181.152344 L 129.148438 246.546875 Z M 63.082031 214.335938 " clip-rule="nonzero"/></clipPath><clipPath id="2bdbc00ad8"><path d="M 63.082031 214.335938 L 94.964844 148.945312 L 161.03125 181.152344 L 129.148438 246.546875 Z M 63.082031 214.335938 " clip-rule="nonzero"/></clipPath><clipPath id="3e7ef3e485"><path d="M 90.832031 139.46875 L 129.589844 139.46875 L 129.589844 178.226562 L 90.832031 178.226562 Z M 90.832031 139.46875 " clip-rule="nonzero"/></clipPath><clipPath id="4184797a00"><path d="M 114.613281 139.46875 L 105.808594 139.46875 C 104.226562 139.46875 102.941406 140.753906 102.941406 142.335938 L 102.941406 148.71875 C 102.941406 150.300781 101.660156 151.582031 100.078125 151.582031 L 93.695312 151.582031 C 92.113281 151.582031 90.832031 152.863281 90.832031 154.445312 L 90.832031 163.25 C 90.832031 164.832031 92.113281 166.117188 93.695312 166.117188 L 100.078125 166.117188 C 101.660156 166.117188 102.941406 167.398438 102.941406 168.980469 L 102.941406 175.363281 C 102.941406 176.945312 104.226562 178.226562 105.808594 178.226562 L 114.613281 178.226562 C 116.195312 178.226562 117.476562 176.945312 117.476562 175.363281 L 117.476562 168.980469 C 117.476562 167.398438 118.757812 166.117188 120.339844 166.117188 L 126.722656 166.117188 C 128.304688 166.117188 129.589844 164.832031 129.589844 163.25 L 129.589844 154.445312 C 129.589844 152.863281 128.304688 151.582031 126.722656 151.582031 L 120.339844 151.582031 C 118.757812 151.582031 117.476562 150.300781 117.476562 148.71875 L 117.476562 142.335938 C 117.476562 140.753906 116.195312 139.46875 114.613281 139.46875 Z M 114.613281 139.46875 " clip-rule="nonzero"/></clipPath></defs><g clip-path="url(#46015ffe73)"><g clip-path="url(#7fc441878c)"><path fill="#05d671" d="M 68.953125 128.347656 L 151.46875 128.347656 L 151.46875 210.863281 L 68.953125 210.863281 Z M 68.953125 128.347656 " fill-opacity="1" fill-rule="nonzero"/></g></g><g clip-path="url(#5df934a3ce)"><g clip-path="url(#a5f3e86cb7)"><path fill="#000000" d="M 71.9375 131.332031 L 148.480469 131.332031 L 148.480469 207.875 L 71.9375 207.875 Z M 71.9375 131.332031 " fill-opacity="1" fill-rule="nonzero"/></g></g><g clip-path="url(#b6e5d8cc49)"><g clip-path="url(#ac5ae92416)"><path fill="#000000" d="M 68.953125 193.273438 L 104.125 193.273438 L 104.125 228.449219 L 68.953125 228.449219 Z M 68.953125 193.273438 " fill-opacity="1" fill-rule="nonzero"/></g></g><g clip-path="url(#3de356a283)"><g clip-path="url(#f0610e2164)"><g clip-path="url(#abec91e25e)"><path fill="#000000" d="M 107.546875 166.101562 L 168.535156 173.550781 L 161.523438 230.949219 L 100.535156 223.5 Z M 107.546875 166.101562 " fill-opacity="1" fill-rule="nonzero"/></g></g></g><g clip-path="url(#1fbc8cb602)"><g clip-path="url(#57671b1467)"><g clip-path="url(#4c101786ed)"><path fill="#05d671" d="M 141.183594 182.125 C 137.992188 186.253906 140.140625 191.890625 140.140625 191.890625 C 137.394531 191.71875 137.222656 195.105469 137.078125 198.429688 C 136.988281 200.453125 137.320312 201.640625 136.398438 202.796875 C 136.839844 202.535156 137.289062 202.261719 137.742188 201.980469 C 138.574219 201.464844 139.40625 200.898438 140.246094 200.320312 C 141.089844 199.75 141.886719 199.101562 142.636719 198.441406 C 142.996094 198.101562 143.359375 197.746094 143.582031 197.460938 C 143.722656 197.351562 143.84375 197.046875 143.972656 196.835938 L 143.992188 196.800781 L 144.007812 196.753906 L 144.050781 196.601562 L 144.144531 196.292969 C 144.339844 195.378906 144.425781 194.367188 144.480469 193.402344 C 144.570312 191.460938 144.566406 189.617188 144.574219 188.035156 C 144.574219 184.863281 144.574219 182.746094 144.574219 182.746094 C 144.574219 182.746094 142.476562 180.457031 141.183594 182.125 " fill-opacity="1" fill-rule="nonzero"/></g></g></g><g clip-path="url(#d03342e827)"><g clip-path="url(#f7d73e020a)"><g clip-path="url(#2bdbc00ad8)"><path fill="#05d671" d="M 148.203125 177.425781 C 144.644531 177.757812 144.574219 182.746094 144.574219 182.746094 C 144.574219 182.746094 145.089844 184.8125 145.480469 187.980469 C 145.683594 189.5625 145.859375 191.417969 145.875 193.4375 C 145.859375 194.453125 145.875 195.492188 145.644531 196.621094 L 145.523438 197.0625 L 145.460938 197.285156 L 145.4375 197.367188 L 145.429688 197.382812 C 145.464844 197.3125 145.382812 197.488281 145.390625 197.476562 L 145.34375 197.5625 C 145.199219 197.800781 145.144531 198.007812 144.914062 198.28125 C 144.511719 198.84375 144.109375 199.214844 143.710938 199.617188 C 142.867188 200.339844 142.003906 201.007812 141.113281 201.585938 C 140.238281 202.191406 139.328125 202.695312 138.449219 203.191406 C 136.691406 204.15625 134.980469 204.921875 133.480469 205.488281 C 132.734375 205.785156 132.03125 206.003906 131.40625 206.199219 C 130.785156 206.386719 130.234375 206.523438 129.773438 206.617188 C 129.320312 206.730469 128.949219 206.761719 128.703125 206.796875 C 128.460938 206.828125 128.328125 206.847656 128.328125 206.847656 C 114.136719 211.136719 105.652344 202.011719 105.652344 202.011719 C 105.652344 202.011719 117.597656 205.320312 125.644531 200.980469 C 132.257812 197.410156 128.847656 190.027344 126.800781 191.648438 C 121.027344 196.21875 107.449219 192.089844 99.257812 192.25 C 73.609375 192.753906 69.714844 217.566406 69.714844 217.566406 C 91.65625 209.511719 107.964844 223.773438 120.832031 222.21875 C 132.976562 220.75 133.660156 218.125 139.851562 214.847656 C 144.578125 212.34375 151.492188 201.242188 151.492188 201.242188 C 152.019531 198.015625 152.21875 177.050781 148.203125 177.425781 " fill-opacity="1" fill-rule="nonzero"/></g></g></g><g clip-path="url(#3e7ef3e485)"><g clip-path="url(#4184797a00)"><path fill="#ff5757" d="M 90.832031 139.46875 L 129.589844 139.46875 L 129.589844 178.226562 L 90.832031 178.226562 Z M 90.832031 139.46875 " fill-opacity="1" fill-rule="nonzero"/></g></g><g fill="#ffffff" fill-opacity="1"><g transform="translate(167.275945, 188.157895)"><g><path d="M 9.90625 0.28125 C 8.207031 0.28125 6.675781 -0.0820312 5.3125 -0.8125 C 3.945312 -1.550781 2.875 -2.570312 2.09375 -3.875 C 1.3125 -5.175781 0.921875 -6.648438 0.921875 -8.296875 C 0.921875 -9.929688 1.3125 -11.398438 2.09375 -12.703125 C 2.875 -14.003906 3.945312 -15.019531 5.3125 -15.75 C 6.675781 -16.488281 8.210938 -16.859375 9.921875 -16.859375 C 11.359375 -16.859375 12.65625 -16.601562 13.8125 -16.09375 C 14.976562 -15.59375 15.957031 -14.867188 16.75 -13.921875 L 14.28125 -11.65625 C 13.164062 -12.945312 11.773438 -13.59375 10.109375 -13.59375 C 9.085938 -13.59375 8.171875 -13.367188 7.359375 -12.921875 C 6.554688 -12.472656 5.929688 -11.84375 5.484375 -11.03125 C 5.035156 -10.226562 4.8125 -9.316406 4.8125 -8.296875 C 4.8125 -7.265625 5.035156 -6.34375 5.484375 -5.53125 C 5.929688 -4.726562 6.554688 -4.101562 7.359375 -3.65625 C 8.171875 -3.207031 9.085938 -2.984375 10.109375 -2.984375 C 11.773438 -2.984375 13.164062 -3.640625 14.28125 -4.953125 L 16.75 -2.671875 C 15.957031 -1.710938 14.976562 -0.976562 13.8125 -0.46875 C 12.644531 0.03125 11.34375 0.28125 9.90625 0.28125 Z M 9.90625 0.28125 "/></g></g></g><g fill="#ffffff" fill-opacity="1"><g transform="translate(188.045328, 188.157895)"><g><path d="M 12.890625 -3.546875 L 5.1875 -3.546875 L 3.71875 0 L -0.21875 0 L 7.171875 -16.578125 L 10.96875 -16.578125 L 18.375 0 L 14.359375 0 Z M 11.671875 -6.46875 L 9.046875 -12.8125 L 6.421875 -6.46875 Z M 11.671875 -6.46875 "/></g></g></g><g fill="#ffffff" fill-opacity="1"><g transform="translate(209.596215, 188.157895)"><g><path d="M 12.53125 0 L 9.328125 -4.625 L 5.796875 -4.625 L 5.796875 0 L 1.96875 0 L 1.96875 -16.578125 L 9.140625 -16.578125 C 10.609375 -16.578125 11.882812 -16.332031 12.96875 -15.84375 C 14.050781 -15.351562 14.882812 -14.65625 15.46875 -13.75 C 16.050781 -12.851562 16.34375 -11.789062 16.34375 -10.5625 C 16.34375 -9.332031 16.046875 -8.269531 15.453125 -7.375 C 14.859375 -6.488281 14.019531 -5.804688 12.9375 -5.328125 L 16.65625 0 Z M 12.453125 -10.5625 C 12.453125 -11.5 12.148438 -12.210938 11.546875 -12.703125 C 10.953125 -13.203125 10.082031 -13.453125 8.9375 -13.453125 L 5.796875 -13.453125 L 5.796875 -7.671875 L 8.9375 -7.671875 C 10.082031 -7.671875 10.953125 -7.921875 11.546875 -8.421875 C 12.148438 -8.929688 12.453125 -9.644531 12.453125 -10.5625 Z M 12.453125 -10.5625 "/></g></g></g><g fill="#ffffff" fill-opacity="1"><g transform="translate(230.412965, 188.157895)"><g><path d="M 14.8125 -3.078125 L 14.8125 0 L 1.96875 0 L 1.96875 -16.578125 L 14.5 -16.578125 L 14.5 -13.5 L 5.78125 -13.5 L 5.78125 -9.90625 L 13.484375 -9.90625 L 13.484375 -6.921875 L 5.78125 -6.921875 L 5.78125 -3.078125 Z M 14.8125 -3.078125 "/></g></g></g><g fill="#ffffff" fill-opacity="1"><g transform="translate(258.349419, 185.752797)"><g><path d="M 4.0625 -9.4375 L 4.0625 -6.375 L 9.421875 -6.375 L 9.421875 -4.21875 L 4.0625 -4.21875 L 4.0625 0 L 1.375 0 L 1.375 -11.59375 L 10.140625 -11.59375 L 10.140625 -9.4375 Z M 4.0625 -9.4375 "/></g></g></g><g fill="#ffffff" fill-opacity="1"><g transform="translate(271.313346, 185.752797)"><g><path d="M 6.984375 0.203125 C 5.785156 0.203125 4.703125 -0.0546875 3.734375 -0.578125 C 2.765625 -1.097656 2.003906 -1.8125 1.453125 -2.71875 C 0.910156 -3.632812 0.640625 -4.660156 0.640625 -5.796875 C 0.640625 -6.929688 0.910156 -7.953125 1.453125 -8.859375 C 2.003906 -9.773438 2.765625 -10.492188 3.734375 -11.015625 C 4.703125 -11.535156 5.785156 -11.796875 6.984375 -11.796875 C 8.191406 -11.796875 9.273438 -11.535156 10.234375 -11.015625 C 11.191406 -10.492188 11.945312 -9.773438 12.5 -8.859375 C 13.050781 -7.953125 13.328125 -6.929688 13.328125 -5.796875 C 13.328125 -4.660156 13.050781 -3.632812 12.5 -2.71875 C 11.945312 -1.8125 11.191406 -1.097656 10.234375 -0.578125 C 9.273438 -0.0546875 8.191406 0.203125 6.984375 0.203125 Z M 6.984375 -2.09375 C 7.671875 -2.09375 8.289062 -2.25 8.84375 -2.5625 C 9.394531 -2.875 9.828125 -3.3125 10.140625 -3.875 C 10.453125 -4.4375 10.609375 -5.078125 10.609375 -5.796875 C 10.609375 -6.515625 10.453125 -7.15625 10.140625 -7.71875 C 9.828125 -8.28125 9.394531 -8.71875 8.84375 -9.03125 C 8.289062 -9.34375 7.671875 -9.5 6.984375 -9.5 C 6.304688 -9.5 5.691406 -9.34375 5.140625 -9.03125 C 4.585938 -8.71875 4.148438 -8.28125 3.828125 -7.71875 C 3.515625 -7.15625 3.359375 -6.515625 3.359375 -5.796875 C 3.359375 -5.078125 3.515625 -4.4375 3.828125 -3.875 C 4.148438 -3.3125 4.585938 -2.875 5.140625 -2.5625 C 5.691406 -2.25 6.304688 -2.09375 6.984375 -2.09375 Z M 6.984375 -2.09375 "/></g></g></g><g fill="#ffffff" fill-opacity="1"><g transform="translate(287.671344, 185.752797)"><g><path d="M 8.765625 0 L 6.53125 -3.234375 L 4.0625 -3.234375 L 4.0625 0 L 1.375 0 L 1.375 -11.59375 L 6.390625 -11.59375 C 7.421875 -11.59375 8.3125 -11.421875 9.0625 -11.078125 C 9.820312 -10.734375 10.40625 -10.242188 10.8125 -9.609375 C 11.21875 -8.984375 11.421875 -8.242188 11.421875 -7.390625 C 11.421875 -6.523438 11.210938 -5.78125 10.796875 -5.15625 C 10.390625 -4.53125 9.804688 -4.050781 9.046875 -3.71875 L 11.640625 0 Z M 8.71875 -7.390625 C 8.71875 -8.035156 8.503906 -8.53125 8.078125 -8.875 C 7.660156 -9.226562 7.050781 -9.40625 6.25 -9.40625 L 4.0625 -9.40625 L 4.0625 -5.359375 L 6.25 -5.359375 C 7.050781 -5.359375 7.660156 -5.535156 8.078125 -5.890625 C 8.503906 -6.242188 8.71875 -6.742188 8.71875 -7.390625 Z M 8.71875 -7.390625 "/></g></g></g></svg>